<svg width="16" height="16" viewBox="0 0 16 16" fill="none" xmlns="http://www.w3.org/2000/svg">
<path d="M6 8V3C6 1.89543 6.89543 1 8 1H13C14.1046 1 15 1.89543 15 3V8C15 9.10457 14.1046 10 13 10H8C6.89543 10 6 9.10457 6 8Z" stroke="#CCCCCC"/>
<path d="M1.5 13.5V7C1.5 6.44772 1.94772 6 2.5 6C3.05228 6 3.5 6.44772 3.5 7V8.5C3.5 10.7091 5.29086 12.5 7.5 12.5H9C9.55228 12.5 10 12.9477 10 13.5C10 14.0523 9.55229 14.5 9 14.5H2.5C1.94772 14.5 1.5 14.0523 1.5 13.5Z" fill="#CCCCCC" stroke="#CCCCCC"/>
</svg>
