<svg width="16" height="16" viewBox="0 0 16 16" fill="none" xmlns="http://www.w3.org/2000/svg">
<path d="M7.99998 0L14.9282 4V12L7.99998 16L1.07178 12V4L7.99998 0Z" fill="#A073D9"/>
<path d="M12.338 5.51368C11.7897 4.5571 10.9407 3.80857 9.92291 3.38455C8.90516 2.96053 7.77579 2.88479 6.71053 3.16913C5.64528 3.45347 4.70387 4.08194 4.03281 4.95675C3.36174 5.83156 2.99864 6.90364 3 8.00619C3.00137 9.10875 3.36713 10.1799 4.04036 11.0531C4.71359 11.9262 5.65655 12.5523 6.72251 12.834C7.78847 13.1157 8.91764 13.0372 9.93435 12.6107C10.951 12.1841 11.7983 11.4335 12.3441 10.4756L10.5017 9.42564C10.1873 9.97729 9.69946 10.4096 9.11396 10.6552C8.52846 10.9008 7.87818 10.9461 7.26431 10.7838C6.65045 10.6216 6.10741 10.261 5.71971 9.75821C5.33201 9.25538 5.12137 8.63851 5.12059 8.00357C5.1198 7.36863 5.3289 6.75123 5.71536 6.24744C6.10182 5.74366 6.64396 5.38173 7.25742 5.21799C7.87088 5.05424 8.52127 5.09785 9.10737 5.34204C9.69348 5.58623 10.1824 6.01729 10.4982 6.56817L12.338 5.51368Z" fill="white"/>
<path d="M14.0156 10L14.7315 5.63636H15.4134L14.6974 10H14.0156ZM12.0618 8.91761L12.1747 8.2358H15.5838L15.4709 8.91761H12.0618ZM12.4815 10L13.1974 5.63636H13.8793L13.1634 10H12.4815ZM12.3111 7.40057L12.4261 6.71875H15.8352L15.7202 7.40057H12.3111Z" fill="white"/>
</svg>
