<svg width="16" height="16" viewBox="0 0 16 16" fill="none" xmlns="http://www.w3.org/2000/svg">
<path d="M16 5.99998L13 8.99998L12 7.99998L12.5 6.99998L12 6.49998L10.5 6.5L9.5 5.5V4C9.5 2.7829 7.92203 1.65398 6.71716 1.8261L5.5 1.99998V1.49998L7.06841 0.977178C8.86508 0.378287 10.8459 0.845899 12.1851 2.18506L13.5 3.5V4.99998L14 5.49998L15 4.99998L16 5.99998Z" fill="#D9D9D9"/>
<path d="M6 9L6.5 9.5L7 10L2.90536 14.9136C2.41918 15.497 1.537 15.537 1 15C0.463001 14.463 0.503017 13.5808 1.08643 13.0946L6 9Z" fill="#D9D9D9"/>
<path d="M9.5 6.5L6.5 9.5M6.5 9.5L6 9L1.08643 13.0946C0.503017 13.5808 0.463001 14.463 1 15V15C1.537 15.537 2.41918 15.497 2.90536 14.9136L7 10L6.5 9.5Z" stroke="#D9D9D9"/>
</svg>
