<svg width="16" height="16" viewBox="0 0 16 16" fill="none" xmlns="http://www.w3.org/2000/svg">
<path d="M1.5718 4.28867L8 0.57735L14.4282 4.28867V11.7113L8 15.4226L1.5718 11.7113V4.28867Z" fill="#578117" stroke="#578117"/>
<path d="M10.77 10.9899C10.9167 11.2499 11.0767 11.4766 11.25 11.6699C11.43 11.8633 11.6267 12.0133 11.84 12.1199C12.0533 12.2266 12.2833 12.2799 12.53 12.2799C12.8167 12.2799 13.05 12.2066 13.23 12.0599C13.41 11.9133 13.5 11.7133 13.5 11.4599C13.5 11.2399 13.4433 11.0633 13.33 10.9299C13.2233 10.7966 13.06 10.6799 12.84 10.5799C12.6267 10.4733 12.3633 10.3599 12.05 10.2399C11.8833 10.1799 11.69 10.0999 11.47 9.99995C11.2567 9.89328 11.0533 9.75995 10.86 9.59995C10.6667 9.43328 10.5067 9.23328 10.38 8.99995C10.2533 8.75995 10.19 8.47329 10.19 8.13995C10.19 7.73995 10.29 7.39662 10.49 7.10995C10.6967 6.81662 10.9733 6.59328 11.32 6.43995C11.6733 6.27995 12.0667 6.19995 12.5 6.19995C12.9467 6.19995 13.33 6.27662 13.65 6.42995C13.9767 6.57662 14.2467 6.76662 14.46 6.99995C14.68 7.22662 14.85 7.46329 14.97 7.70995L13.85 8.32996C13.7567 8.16329 13.6433 8.01329 13.51 7.87995C13.3833 7.73995 13.2367 7.62995 13.07 7.54995C12.9033 7.46329 12.7133 7.41995 12.5 7.41995C12.22 7.41995 12.01 7.48662 11.87 7.61995C11.73 7.74662 11.66 7.89662 11.66 8.06995C11.66 8.24329 11.7167 8.39662 11.83 8.52995C11.9433 8.65662 12.1167 8.77995 12.35 8.89995C12.5833 9.01329 12.8767 9.12995 13.23 9.24995C13.4567 9.32995 13.6733 9.42995 13.88 9.54995C14.0933 9.66995 14.2833 9.81662 14.45 9.98995C14.6233 10.1566 14.7567 10.3566 14.85 10.5899C14.95 10.8166 15 11.0799 15 11.3799C15 11.7199 14.9333 12.0233 14.8 12.2899C14.6667 12.5566 14.4833 12.7833 14.25 12.9699C14.0167 13.1499 13.7533 13.2866 13.46 13.3799C13.1733 13.4799 12.87 13.5299 12.55 13.5299C12.1233 13.5299 11.7233 13.4499 11.35 13.2899C10.9833 13.1233 10.6633 12.8999 10.39 12.6199C10.1167 12.3399 9.90333 12.0366 9.75 11.7099L10.77 10.9899Z" fill="white"/>
<path d="M9 11V3H7.5V11C7.5 11.5523 7.05228 12 6.5 12C5.94772 12 5.5 11.5523 5.5 11V10.5H4V11C4 12.3807 5.11929 13.5 6.5 13.5C7.88071 13.5 9 12.3807 9 11Z" fill="white"/>
</svg>
