<svg width="16" height="16" viewBox="0 0 16 16" fill="none" xmlns="http://www.w3.org/2000/svg">
<path d="M2 12.5V4.5C2 3.39543 2.89543 2.5 4 2.5H4.76072C5.21937 2.5 5.64439 2.25936 5.88036 1.86607C6.3875 1.02083 7.6125 1.02083 8.11964 1.86607C8.35561 2.25936 8.78063 2.5 9.23928 2.5H10C11.1046 2.5 12 3.39543 12 4.5V7C12 7.27614 11.7761 7.5 11.5 7.5C9.29086 7.5 7.5 9.29086 7.5 11.5V13.7222C7.5 14.1518 7.15178 14.5 6.72222 14.5H4C2.89543 14.5 2 13.6046 2 12.5Z" stroke="#CCCCCC"/>
<path d="M13.5 10H12C10.8954 10 10 10.8954 10 12V13.5C10 14.0523 10.4477 14.5 11 14.5H13.5C14.0523 14.5 14.5 14.0523 14.5 13.5V11C14.5 10.4477 14.0523 10 13.5 10Z" fill="#CCCCCC" stroke="#CCCCCC"/>
</svg>
