<svg width="16" height="16" viewBox="0 0 16 16" fill="none" xmlns="http://www.w3.org/2000/svg">
<path d="M2 15V1H10L14 5V15H2Z" fill="url(#paint0_linear_1776_75)"/>
<path d="M5.25 6H7.0082V14H5.25V6ZM6.31967 7.38286V6H8.02869C8.70902 6 9.28689 6.10286 9.7623 6.30857C10.2459 6.51429 10.6148 6.80762 10.8689 7.18857C11.123 7.56952 11.25 8.02286 11.25 8.54857C11.25 9.06667 11.123 9.52 10.8689 9.90857C10.6148 10.2895 10.2459 10.5829 9.7623 10.7886C9.28689 10.9943 8.70902 11.0971 8.02869 11.0971H6.31967V9.71429H8.02869C8.4959 9.71429 8.86475 9.61524 9.13525 9.41714C9.40574 9.21905 9.54098 8.92952 9.54098 8.54857C9.54098 8.16 9.40574 7.87048 9.13525 7.68C8.86475 7.4819 8.4959 7.38286 8.02869 7.38286H6.31967Z" fill="white"/>
<path d="M10 5V1L14 5H10Z" fill="white"/>
<defs>
<linearGradient id="paint0_linear_1776_75" x1="14" y1="1" x2="8" y2="7" gradientUnits="userSpaceOnUse">
<stop stop-color="#580600"/>
<stop offset="1" stop-color="#AE0C00"/>
</linearGradient>
</defs>
</svg>
