<svg width="16" height="16" viewBox="0 0 16 16" fill="none" xmlns="http://www.w3.org/2000/svg">
<path d="M16 8C16 9.58225 15.5308 11.129 14.6518 12.4446C13.7727 13.7602 12.5233 14.7855 11.0615 15.391C9.59966 15.9965 7.99113 16.155 6.43928 15.8463C4.88743 15.5376 3.46197 14.7757 2.34315 13.6569C1.22433 12.538 0.4624 11.1126 0.153718 9.56072C-0.154964 8.00887 0.00346269 6.40034 0.608964 4.93853C1.21446 3.47672 2.23984 2.22729 3.55544 1.34824C4.87103 0.469192 6.41775 -1.88681e-08 8 0L8 8H16Z" fill="#D35230"/>
<path d="M5 12.9998V4.99976H8.72628C9.28102 4.99976 9.76642 5.10629 10.1825 5.31936C10.5985 5.53243 10.9221 5.83191 11.1533 6.2178C11.3844 6.60369 11.5 7.05468 11.5 7.57078C11.5 8.09161 11.3808 8.54261 11.1423 8.92376C10.9063 9.30492 10.5742 9.59848 10.146 9.80444C9.7202 10.0104 9.22263 10.1134 8.65329 10.1134H6.22628V8.5793H8.5C8.73844 8.5793 8.94161 8.53906 9.10949 8.45856C9.27981 8.3757 9.40998 8.25852 9.5 8.107C9.59246 7.95549 9.63869 7.77674 9.63869 7.57078C9.63869 7.36245 9.59246 7.18489 9.5 7.03811C9.40998 6.88896 9.27981 6.77532 9.10949 6.6972C8.94161 6.61671 8.73844 6.57646 8.5 6.57646H7.0292L7.05547 12.9998H5Z" fill="white"/>
</svg>
