<svg width="16" height="16" viewBox="0 0 16 16" fill="none" xmlns="http://www.w3.org/2000/svg">
<path d="M16 5C16 6.895 14.9458 8.54378 13.3918 9.39186L11 7L9.99998 8L7.49998 5.5L7.49992 3L6.71942 2.41462C7.59544 0.967328 9.18474 0 11 0C11.8664 0 12.6814 0.220374 13.3918 0.608128L11 3C10.4477 3.55228 10.4477 4.44772 11 5C11.5522 5.55228 12.4477 5.55229 13 5L15.3918 2.60812C15.7796 3.31861 16 4.13357 16 5Z" fill="#D9D9D9"/>
<path d="M7 11L3 15C2.44772 15.5523 1.55228 15.5523 1 15C0.447715 14.4477 0.447716 13.5523 1 13L5 9L6 10L7 11Z" fill="#D9D9D9"/>
<path d="M7 9L6 10M6 10L5 9L1 13C0.447716 13.5523 0.447715 14.4477 1 15V15C1.55228 15.5523 2.44772 15.5523 3 15L7 11L6 10Z" stroke="#D9D9D9"/>
<path d="M9 11L12.8362 14.9287C13.412 15.5183 14.3585 15.5239 14.9412 14.9412C15.5239 14.3585 15.5183 13.412 14.9287 12.8362L11 9L10 10L6.14317 6.14317L6 6V4L2.5 1L1 2.5L4 6L6.14317 6.14317L10 10L9 11Z" fill="#D9D9D9"/>
<path d="M10 10L6.14317 6.14317L4 6L1 2.5L2.5 1L6 4V6L10 10ZM10 10L11 9L14.9287 12.8362C15.5183 13.412 15.5239 14.3585 14.9412 14.9412V14.9412C14.3585 15.5239 13.412 15.5183 12.8362 14.9287L9 11L10 10Z" stroke="#D9D9D9"/>
</svg>
