<svg width="16" height="16" viewBox="0 0 16 16" fill="none" xmlns="http://www.w3.org/2000/svg">
<path d="M2 16V0H10L14 4V16H2Z" fill="url(#paint0_linear_1800_44)"/>
<path d="M10 4V0L14 4H10Z" fill="white"/>
<path fill-rule="evenodd" clip-rule="evenodd" d="M6.6667 7H9.33336L10 15.25H6L6.6667 7ZM7.5 12V14H8.5V12H7.5Z" fill="#1E1E1E"/>
<rect x="8" y="5" width="1" height="0.5" fill="#1E1E1E"/>
<rect x="7" y="4.5" width="1" height="0.5" fill="#1E1E1E"/>
<rect x="8" y="4" width="1" height="0.5" fill="#1E1E1E"/>
<rect x="7" y="3.5" width="1" height="0.5" fill="#1E1E1E"/>
<rect x="8" y="2" width="1" height="0.5" fill="#1E1E1E"/>
<rect x="8" width="1" height="0.5" fill="#1E1E1E"/>
<rect x="8" y="1" width="1" height="0.5" fill="#1E1E1E"/>
<rect x="8" y="3" width="1" height="0.5" fill="#1E1E1E"/>
<rect x="7" y="2.5" width="1" height="0.5" fill="#1E1E1E"/>
<rect x="7" y="0.5" width="1" height="0.5" fill="#1E1E1E"/>
<rect x="7" y="1.5" width="1" height="0.5" fill="#1E1E1E"/>
<path d="M8 6V8" stroke="#1E1E1E"/>
<defs>
<linearGradient id="paint0_linear_1800_44" x1="8" y1="7" x2="14" y2="1" gradientUnits="userSpaceOnUse">
<stop stop-color="#D9D9D9"/>
<stop offset="1" stop-color="#8C8C8C"/>
</linearGradient>
</defs>
</svg>
