<svg width="16" height="16" viewBox="0 0 16 16" fill="none" xmlns="http://www.w3.org/2000/svg">
<path d="M1.25 13.5V4.5C1.25 3.39543 2.14543 2.5 3.25 2.5H5.95469C6.14745 2.5 6.3361 2.55571 6.49794 2.66043L9.00206 4.28075C9.1639 4.38546 9.35255 4.44118 9.54531 4.44118H12.25C13.3546 4.44118 14.25 5.33661 14.25 6.44118V7.5M1.25 13.5H12.4097C13.4499 13.5 14.3164 12.7027 14.4028 11.6661L14.6597 8.58305C14.7083 8.00003 14.2482 7.5 13.6632 7.5H4.67013C4.15004 7.5 3.71678 7.89866 3.67359 8.41695L3.25 13.5H1.25Z" stroke="#CCCCCC"/>
</svg>
