<svg width="16" height="16" viewBox="0 0 16 16" fill="none" xmlns="http://www.w3.org/2000/svg">
<path d="M14 4.5L14.75 3.75C15.4404 3.05964 15.4404 1.94036 14.75 1.25C14.0596 0.559644 12.9404 0.559644 12.25 1.25L11.5 2L14 4.5Z" fill="#CCCCCC"/>
<path d="M12.5 6L10 3.5L2.69586 10.8041C2.5677 10.9323 2.47678 11.0929 2.43282 11.2687L2 13L3 14L4.73129 13.5672C4.90712 13.5232 5.0677 13.4323 5.19586 13.3041L12.5 6Z" fill="#CCCCCC"/>
<path d="M10 3.5L12.5 6L5.19586 13.3041C5.0677 13.4323 4.90712 13.5232 4.73129 13.5672L3 14L2 13L2.43282 11.2687C2.47678 11.0929 2.5677 10.9323 2.69586 10.8041L10 3.5ZM10 3.5L9.20711 2.70711C8.81658 2.31658 8.18342 2.31658 7.79289 2.70711L5 5.5M14 4.5L14.75 3.75C15.4404 3.05964 15.4404 1.94036 14.75 1.25V1.25C14.0596 0.559644 12.9404 0.559644 12.25 1.25L11.5 2L14 4.5Z" stroke="#CCCCCC"/>
<path d="M0.146447 15.1464C-0.0488155 15.3417 -0.0488155 15.6583 0.146447 15.8536C0.341709 16.0488 0.658291 16.0488 0.853553 15.8536L0.146447 15.1464ZM2.14645 13.1464L0.146447 15.1464L0.853553 15.8536L2.85355 13.8536L2.14645 13.1464Z" fill="#CCCCCC"/>
</svg>
