<svg width="16" height="16" viewBox="0 0 16 16" fill="none" xmlns="http://www.w3.org/2000/svg">
<path d="M0.646447 14.6464C0.451184 14.8417 0.451184 15.1583 0.646447 15.3536C0.841709 15.5488 1.15829 15.5488 1.35355 15.3536L0.646447 14.6464ZM5.35355 11.3536L5.70711 11L5 10.2929L4.64645 10.6464L5.35355 11.3536ZM1.35355 15.3536L5.35355 11.3536L4.64645 10.6464L0.646447 14.6464L1.35355 15.3536Z" fill="#CCCCCC"/>
<path d="M15.5 6C15.5 9.03757 13.0376 11.5 10 11.5C6.96243 11.5 4.5 9.03757 4.5 6C4.5 2.96243 6.96243 0.5 10 0.5C13.0376 0.5 15.5 2.96243 15.5 6Z" stroke="#CCCCCC"/>
</svg>
