<svg width="16" height="16" viewBox="0 0 16 16" fill="none" xmlns="http://www.w3.org/2000/svg">
<path d="M7.9282 0L14.8564 4V12L7.9282 16L1 12V4L7.9282 0Z" fill="#5D6CC0"/>
<path d="M12.338 5.51368C11.7897 4.5571 10.9407 3.80857 9.92291 3.38455C8.90516 2.96053 7.77579 2.88479 6.71053 3.16913C5.64528 3.45347 4.70387 4.08194 4.03281 4.95675C3.36174 5.83156 2.99864 6.90364 3 8.00619C3.00137 9.10875 3.36713 10.1799 4.04036 11.0531C4.71359 11.9262 5.65655 12.5523 6.72251 12.834C7.78847 13.1157 8.91764 13.0372 9.93435 12.6107C10.951 12.1841 11.7983 11.4335 12.3441 10.4756L10.5017 9.42564C10.1873 9.97729 9.69946 10.4096 9.11396 10.6552C8.52846 10.9008 7.87818 10.9461 7.26431 10.7838C6.65045 10.6216 6.10741 10.261 5.71971 9.75821C5.33201 9.25538 5.12137 8.63851 5.12059 8.00357C5.1198 7.36863 5.3289 6.75123 5.71536 6.24744C6.10182 5.74366 6.64396 5.38173 7.25742 5.21799C7.87088 5.05424 8.52127 5.09785 9.10737 5.34204C9.69348 5.58623 10.1824 6.01729 10.4982 6.56817L12.338 5.51368Z" fill="white"/>
</svg>
