<svg width="16" height="16" viewBox="0 0 16 16" fill="none" xmlns="http://www.w3.org/2000/svg">
<path d="M2 16V0H10L14 4V16H2Z" fill="url(#paint0_linear_1800_2)"/>
<path d="M10 4V0L14 4H10Z" fill="white"/>
<path fill-rule="evenodd" clip-rule="evenodd" d="M5.92992 5.34277C5.57265 5.34277 5.24252 5.53345 5.06389 5.84277L2.98395 9.44543C2.80532 9.75476 2.80532 10.136 2.98395 10.4454L5.06389 14.048C5.24252 14.3573 5.57265 14.548 5.92992 14.548H10.0898C10.4471 14.548 10.7772 14.3573 10.9558 14.048L13.0358 10.4454C13.2144 10.136 13.2144 9.75476 13.0358 9.44543L10.9558 5.84277C10.7772 5.53345 10.4471 5.34277 10.0898 5.34277H5.92992ZM8 12.0001C9.10457 12.0001 10 11.1047 10 10.0001C10 8.89551 9.10457 8.00012 8 8.00012C6.89544 8.00012 6 8.89551 6 10.0001C6 11.1047 6.89544 12.0001 8 12.0001Z" fill="#4B5E68"/>
<defs>
<linearGradient id="paint0_linear_1800_2" x1="8" y1="7" x2="14" y2="1" gradientUnits="userSpaceOnUse">
<stop stop-color="#D9D9D9"/>
<stop offset="1" stop-color="#8C8C8C"/>
</linearGradient>
</defs>
</svg>
