<svg width="16" height="16" viewBox="0 0 16 16" fill="none" xmlns="http://www.w3.org/2000/svg">
<path d="M2 16V0H10L14 4V16H2Z" fill="url(#paint0_linear_1791_92)"/>
<path d="M10 4V0L14 4H10Z" fill="white"/>
<mask id="path-3-inside-1_1791_92" fill="white">
<path d="M13 10C13 12.7614 10.7614 15 8 15C5.23858 15 3 12.7614 3 10C3 7.23858 5.23858 5 8 5C10.7614 5 13 7.23858 13 10ZM4.63946 10C4.63946 11.856 6.14402 13.3605 8 13.3605C9.85598 13.3605 11.3605 11.856 11.3605 10C11.3605 8.14402 9.85598 6.63946 8 6.63946C6.14402 6.63946 4.63946 8.14402 4.63946 10Z"/>
</mask>
<path d="M13 10C13 12.7614 10.7614 15 8 15C5.23858 15 3 12.7614 3 10C3 7.23858 5.23858 5 8 5C10.7614 5 13 7.23858 13 10ZM4.63946 10C4.63946 11.856 6.14402 13.3605 8 13.3605C9.85598 13.3605 11.3605 11.856 11.3605 10C11.3605 8.14402 9.85598 6.63946 8 6.63946C6.14402 6.63946 4.63946 8.14402 4.63946 10Z" fill="#AD0000" stroke="#AD0000" mask="url(#path-3-inside-1_1791_92)"/>
<path d="M8 10L5 13L11 7" stroke="#AD0000" stroke-width="2"/>
<defs>
<linearGradient id="paint0_linear_1791_92" x1="8" y1="7" x2="14" y2="1" gradientUnits="userSpaceOnUse">
<stop stop-color="#D9D9D9"/>
<stop offset="1" stop-color="#8C8C8C"/>
</linearGradient>
</defs>
</svg>
