<svg width="16" height="16" viewBox="0 0 16 16" fill="none" xmlns="http://www.w3.org/2000/svg">
<path d="M15 0H1L1.5 13.5L8 16L14.5 13.5L15 0Z" fill="#E34E24"/>
<path fill-rule="evenodd" clip-rule="evenodd" d="M3.43518 3H4.50001H12.5V5H5.56484L5.65913 6.5H11.25H12.324L12.2475 7.57125L11.9975 11.0712L11.9505 11.7293L11.327 11.945L8.43662 12.945L8.14962 13.0443L7.85588 12.9673L4.64623 12.1251L3.93725 11.9391L3.90122 11.207L3.81122 9.37809L5.8088 9.27979L5.86278 10.3766L8.06969 10.9557L10.0496 10.2707L10.176 8.5H4.72001H3.78089L3.72198 7.56273L3.50198 4.06273L3.43518 3Z" fill="white"/>
</svg>
