<svg width="16" height="16" viewBox="0 0 16 16" fill="none" xmlns="http://www.w3.org/2000/svg">
<path d="M15 8C15 11.866 11.866 15 8 15C4.13401 15 1 11.866 1 8C1 4.13401 4.13401 1 8 1C11.866 1 15 4.13401 15 8ZM4.59607 8C4.59607 9.87994 6.12006 11.4039 8 11.4039C9.87994 11.4039 11.4039 9.87994 11.4039 8C11.4039 6.12006 9.87994 4.59607 8 4.59607C6.12006 4.59607 4.59607 6.12006 4.59607 8Z" fill="url(#paint0_linear_1775_119)"/>
<path fill-rule="evenodd" clip-rule="evenodd" d="M3.05024 3.05029C1.7375 4.36304 1 6.14343 1 8C1 7.44775 4.13401 4.5 8 4.5C11.866 4.5 15 7.44775 15 8C15 6.14343 14.2625 4.36304 12.9497 3.05017C11.637 1.73743 9.85649 1 7.99998 1C6.14347 1 4.363 1.73755 3.05024 3.05029Z" fill="#FF6E00"/>
<defs>
<linearGradient id="paint0_linear_1775_119" x1="8" y1="15" x2="8" y2="4.5" gradientUnits="userSpaceOnUse">
<stop stop-color="#FF6E00"/>
<stop offset="1" stop-color="#622300"/>
</linearGradient>
</defs>
</svg>
