<svg width="16" height="16" viewBox="0 0 16 16" fill="none" xmlns="http://www.w3.org/2000/svg">
<path d="M1 1H15V15H1V1Z" fill="#F9DC47"/>
<path d="M10.02 11.4897C10.1667 11.7497 10.3267 11.9764 10.5 12.1697C10.68 12.363 10.8767 12.513 11.09 12.6197C11.3033 12.7264 11.5333 12.7797 11.78 12.7797C12.0667 12.7797 12.3 12.7064 12.48 12.5597C12.66 12.413 12.75 12.213 12.75 11.9597C12.75 11.7397 12.6933 11.563 12.58 11.4297C12.4733 11.2964 12.31 11.1797 12.09 11.0797C11.8767 10.973 11.6133 10.8597 11.3 10.7397C11.1333 10.6797 10.94 10.5997 10.72 10.4997C10.5067 10.393 10.3033 10.2597 10.11 10.0997C9.91667 9.93304 9.75667 9.73304 9.63 9.49971C9.50333 9.25971 9.44 8.97304 9.44 8.63971C9.44 8.23971 9.54 7.89637 9.74 7.60971C9.94667 7.31637 10.2233 7.09304 10.57 6.93971C10.9233 6.77971 11.3167 6.69971 11.75 6.69971C12.1967 6.69971 12.58 6.77637 12.9 6.92971C13.2267 7.07637 13.4967 7.26637 13.71 7.49971C13.93 7.72637 14.1 7.96304 14.22 8.20971L13.1 8.82971C13.0067 8.66304 12.8933 8.51304 12.76 8.37971C12.6333 8.23971 12.4867 8.12971 12.32 8.04971C12.1533 7.96304 11.9633 7.91971 11.75 7.91971C11.47 7.91971 11.26 7.98638 11.12 8.11971C10.98 8.24638 10.91 8.39638 10.91 8.56971C10.91 8.74304 10.9667 8.89638 11.08 9.02971C11.1933 9.15638 11.3667 9.27971 11.6 9.39971C11.8333 9.51304 12.1267 9.62971 12.48 9.74971C12.7067 9.82971 12.9233 9.92971 13.13 10.0497C13.3433 10.1697 13.5333 10.3164 13.7 10.4897C13.8733 10.6564 14.0067 10.8564 14.1 11.0897C14.2 11.3164 14.25 11.5797 14.25 11.8797C14.25 12.2197 14.1833 12.523 14.05 12.7897C13.9167 13.0564 13.7333 13.283 13.5 13.4697C13.2667 13.6497 13.0033 13.7864 12.71 13.8797C12.4233 13.9797 12.12 14.0297 11.8 14.0297C11.3733 14.0297 10.9733 13.9497 10.6 13.7897C10.2333 13.623 9.91333 13.3997 9.64 13.1197C9.36667 12.8397 9.15333 12.5364 9 12.2097L10.02 11.4897Z" fill="black"/>
<path d="M8.5 11.4998V3.49976H7V11.4998C7 12.052 6.55228 12.4998 6 12.4998C5.44772 12.4998 5 12.052 5 11.4998V10.9998H3.5V11.4998C3.5 12.8805 4.61929 13.9998 6 13.9998C7.38071 13.9998 8.5 12.8805 8.5 11.4998Z" fill="black"/>
</svg>
